solid OpenSCAD_Model
  facet normal 0 -0.866037 -0.49998
    outer loop
      vertex -14.3252 11.5588 1.97654
      vertex -12.3205 10.5536 3.71769
      vertex -14.8351 10.5536 3.71769
    endloop
  endfacet
  facet normal 0 -0.866037 -0.49998
    outer loop
      vertex -12.3205 10.5536 3.71769
      vertex -14.3252 11.5588 1.97654
      vertex -12.3205 11.5588 1.97654
    endloop
  endfacet
  facet normal 0 0.866024 -0.500002
    outer loop
      vertex -14.3252 8.44115 1.97654
      vertex -12.3205 9.44641 3.71769
      vertex -12.3205 8.44115 1.97654
    endloop
  endfacet
  facet normal 0 0.866024 -0.500002
    outer loop
      vertex -12.3205 9.44641 3.71769
      vertex -14.3252 8.44115 1.97654
      vertex -14.8351 9.44641 3.71769
    endloop
  endfacet
  facet normal -1 0 0
    outer loop
      vertex -12.3205 8.44115 1.97654
      vertex -12.3205 11.5588 1.97654
      vertex -12.3205 11.8 1.55885
    endloop
  endfacet
  facet normal -1 0 0
    outer loop
      vertex -12.3205 11.5588 1.97654
      vertex -12.3205 8.44115 1.97654
      vertex -12.3205 10.5536 3.71769
    endloop
  endfacet
  facet normal -1 -0 0
    outer loop
      vertex -12.3205 10.5536 3.71769
      vertex -12.3205 8.44115 1.97654
      vertex -12.3205 9.44641 3.71769
    endloop
  endfacet
  facet normal -1 0 -0
    outer loop
      vertex -12.3205 8.44115 1.97654
      vertex -12.3205 11.8 1.55885
      vertex -12.3205 8.2 1.55885
    endloop
  endfacet
  facet normal 0 0 -1
    outer loop
      vertex -14.8351 9.44641 3.71769
      vertex -12.3205 10.5536 3.71769
      vertex -12.3205 9.44641 3.71769
    endloop
  endfacet
  facet normal 0 0 -1
    outer loop
      vertex -14.8351 9.44641 3.71769
      vertex -14.8351 10.5536 3.71769
      vertex -12.3205 10.5536 3.71769
    endloop
  endfacet
  facet normal 0 -0 -1
    outer loop
      vertex -14.8351 10.5536 3.71769
      vertex -14.8351 9.44641 3.71769
      vertex -15.794 10 3.71769
    endloop
  endfacet
  facet normal 0 -0.865984 -0.500072
    outer loop
      vertex -14.2028 11.8 1.55885
      vertex -12.3205 11.5588 1.97654
      vertex -14.3252 11.5588 1.97654
    endloop
  endfacet
  facet normal 0 -0.865984 -0.500072
    outer loop
      vertex -12.3205 11.5588 1.97654
      vertex -14.2028 11.8 1.55885
      vertex -12.3205 11.8 1.55885
    endloop
  endfacet
  facet normal 0 0.866028 -0.499995
    outer loop
      vertex -14.2028 8.2 1.55885
      vertex -12.3205 8.44115 1.97654
      vertex -12.3205 8.2 1.55885
    endloop
  endfacet
  facet normal 0 0.866028 -0.499995
    outer loop
      vertex -12.3205 8.44115 1.97654
      vertex -14.2028 8.2 1.55885
      vertex -14.3252 8.44115 1.97654
    endloop
  endfacet
  facet normal 0 -0.866037 -0.49998
    outer loop
      vertex -14.3252 31.5588 1.97654
      vertex -12.3205 30.5536 3.71769
      vertex -14.8351 30.5536 3.71769
    endloop
  endfacet
  facet normal 0 -0.866037 -0.49998
    outer loop
      vertex -12.3205 30.5536 3.71769
      vertex -14.3252 31.5588 1.97654
      vertex -12.3205 31.5588 1.97654
    endloop
  endfacet
  facet normal 0 0.866037 -0.49998
    outer loop
      vertex -14.3252 28.4412 1.97654
      vertex -12.3205 29.4464 3.71769
      vertex -12.3205 28.4412 1.97654
    endloop
  endfacet
  facet normal 0 0.866037 -0.49998
    outer loop
      vertex -12.3205 29.4464 3.71769
      vertex -14.3252 28.4412 1.97654
      vertex -14.8351 29.4464 3.71769
    endloop
  endfacet
  facet normal -1 0 0
    outer loop
      vertex -12.3205 28.4412 1.97654
      vertex -12.3205 31.5588 1.97654
      vertex -12.3205 31.8 1.55885
    endloop
  endfacet
  facet normal -1 0 0
    outer loop
      vertex -12.3205 31.5588 1.97654
      vertex -12.3205 28.4412 1.97654
      vertex -12.3205 30.5536 3.71769
    endloop
  endfacet
  facet normal -1 -0 0
    outer loop
      vertex -12.3205 30.5536 3.71769
      vertex -12.3205 28.4412 1.97654
      vertex -12.3205 29.4464 3.71769
    endloop
  endfacet
  facet normal -1 0 -0
    outer loop
      vertex -12.3205 28.4412 1.97654
      vertex -12.3205 31.8 1.55885
      vertex -12.3205 28.2 1.55885
    endloop
  endfacet
  facet normal 0 0 -1
    outer loop
      vertex -14.8351 29.4464 3.71769
      vertex -12.3205 30.5536 3.71769
      vertex -12.3205 29.4464 3.71769
    endloop
  endfacet
  facet normal 0 0 -1
    outer loop
      vertex -14.8351 29.4464 3.71769
      vertex -14.8351 30.5536 3.71769
      vertex -12.3205 30.5536 3.71769
    endloop
  endfacet
  facet normal 0 -0 -1
    outer loop
      vertex -14.8351 30.5536 3.71769
      vertex -14.8351 29.4464 3.71769
      vertex -15.794 30 3.71769
    endloop
  endfacet
  facet normal 0 -0.865984 -0.500072
    outer loop
      vertex -14.2028 31.8 1.55885
      vertex -12.3205 31.5588 1.97654
      vertex -14.3252 31.5588 1.97654
    endloop
  endfacet
  facet normal 0 -0.865984 -0.500072
    outer loop
      vertex -12.3205 31.5588 1.97654
      vertex -14.2028 31.8 1.55885
      vertex -12.3205 31.8 1.55885
    endloop
  endfacet
  facet normal 0 0.865984 -0.500072
    outer loop
      vertex -14.2028 28.2 1.55885
      vertex -12.3205 28.4412 1.97654
      vertex -12.3205 28.2 1.55885
    endloop
  endfacet
  facet normal 0 0.865984 -0.500072
    outer loop
      vertex -12.3205 28.4412 1.97654
      vertex -14.2028 28.2 1.55885
      vertex -14.3252 28.4412 1.97654
    endloop
  endfacet
  facet normal -0.866026 0 -0.5
    outer loop
      vertex -7.10141 0 1.97654
      vertex -7.97662 -3.81591 3.49245
      vertex -7.97662 0 3.49245
    endloop
  endfacet
  facet normal -0.866026 0 -0.5
    outer loop
      vertex -7.97662 -3.81591 3.49245
      vertex -7.10141 0 1.97654
      vertex -7.10141 -3.92948 1.97654
    endloop
  endfacet
  facet normal 0 -1 0
    outer loop
      vertex -8.66025 0 1.55885
      vertex -7.10141 0 1.97654
      vertex -7.97662 0 3.49245
    endloop
  endfacet
  facet normal 0 -1 -0
    outer loop
      vertex -7.10141 0 1.97654
      vertex -8.66025 0 1.55885
      vertex -6.86025 0 1.55885
    endloop
  endfacet
  facet normal -0.86602 0 -0.50001
    outer loop
      vertex -6.86025 0 1.55885
      vertex -7.10141 -3.92948 1.97654
      vertex -7.10141 0 1.97654
    endloop
  endfacet
  facet normal -0.86602 0 -0.50001
    outer loop
      vertex -7.10141 -3.92948 1.97654
      vertex -6.86025 0 1.55885
      vertex -6.86025 -3.96077 1.55885
    endloop
  endfacet
  facet normal 0 0 -1
    outer loop
      vertex -6.86025 0 1.55885
      vertex 0 0 1.55885
      vertex -6.86025 -3.96077 1.55885
    endloop
  endfacet
  facet normal 0 0 -1
    outer loop
      vertex -8.66025 5 1.55885
      vertex -6.86025 0 1.55885
      vertex -8.66025 0 1.55885
    endloop
  endfacet
  facet normal 0 0 -1
    outer loop
      vertex -6.86025 0 1.55885
      vertex -8.66025 5 1.55885
      vertex 0 0 1.55885
    endloop
  endfacet
  facet normal -0.942809 0 0.333333
    outer loop
      vertex -7.97662 0 3.49245
      vertex -8.66025 5 1.55885
      vertex -8.66025 0 1.55885
    endloop
  endfacet
  facet normal -0.942809 2.47988e-07 0.333334
    outer loop
      vertex -7.97662 0 3.49245
      vertex -5.7735 0 9.72381
      vertex -8.66025 5 1.55885
    endloop
  endfacet
  facet normal -0.942809 0 0.333334
    outer loop
      vertex -5.7735 0 9.72381
      vertex -7.97662 0 3.49245
      vertex -7.97662 -3.81591 3.49245
    endloop
  endfacet
  facet normal 0.471405 0.816496 0.333334
    outer loop
      vertex 0 0 1.55885
      vertex -8.66025 5 1.55885
      vertex -5.7735 0 9.72381
    endloop
  endfacet
  facet normal 0.471404 -0.816496 0.333336
    outer loop
      vertex 0 0 1.55885
      vertex -7.97662 -3.81591 3.49245
      vertex -7.10141 -3.92948 1.97654
    endloop
  endfacet
  facet normal 0.471404 -0.816495 0.333338
    outer loop
      vertex 0 0 1.55885
      vertex -7.10141 -3.92948 1.97654
      vertex -6.86025 -3.96077 1.55885
    endloop
  endfacet
  facet normal 0.471404 -0.816497 0.333333
    outer loop
      vertex -7.97662 -3.81591 3.49245
      vertex 0 0 1.55885
      vertex -5.7735 0 9.72381
    endloop
  endfacet
  facet normal 0 0 -1
    outer loop
      vertex -8.66025 5 1.55885
      vertex -12.3205 8.2 1.55885
      vertex -8.66025 15 1.55885
    endloop
  endfacet
  facet normal -0 -0 -1
    outer loop
      vertex -12.3205 8.2 1.55885
      vertex -8.66025 5 1.55885
      vertex -14.2028 8.2 1.55885
    endloop
  endfacet
  facet normal 0 0 -1
    outer loop
      vertex -12.3205 11.8 1.55885
      vertex -8.66025 15 1.55885
      vertex -12.3205 8.2 1.55885
    endloop
  endfacet
  facet normal 0 0 -1
    outer loop
      vertex -8.66025 15 1.55885
      vertex -12.3205 11.8 1.55885
      vertex -14.2028 11.8 1.55885
    endloop
  endfacet
  facet normal -0.471405 0.816496 0.333333
    outer loop
      vertex -8.66025 15 1.55885
      vertex -14.8351 10.5536 3.71769
      vertex -11.547 10 9.72381
    endloop
  endfacet
  facet normal -0.471408 0.816497 0.333327
    outer loop
      vertex -14.8351 10.5536 3.71769
      vertex -8.66025 15 1.55885
      vertex -14.3252 11.5588 1.97654
    endloop
  endfacet
  facet normal -0.471402 0.81649 0.333352
    outer loop
      vertex -14.3252 11.5588 1.97654
      vertex -8.66025 15 1.55885
      vertex -14.2028 11.8 1.55885
    endloop
  endfacet
  facet normal -0.471392 0.816506 0.333327
    outer loop
      vertex -11.547 10 9.72381
      vertex -14.8351 10.5536 3.71769
      vertex -15.794 10 3.71769
    endloop
  endfacet
  facet normal 0.942809 0 0.333333
    outer loop
      vertex -8.66025 15 1.55885
      vertex -11.547 10 9.72381
      vertex -8.66025 5 1.55885
    endloop
  endfacet
  facet normal -0.471386 -0.816511 0.333323
    outer loop
      vertex -14.8351 9.44641 3.71769
      vertex -11.547 10 9.72381
      vertex -15.794 10 3.71769
    endloop
  endfacet
  facet normal -0.471396 -0.816492 0.333356
    outer loop
      vertex -8.66025 5 1.55885
      vertex -14.8351 9.44641 3.71769
      vertex -14.3252 8.44115 1.97654
    endloop
  endfacet
  facet normal -0.471417 -0.816517 0.333265
    outer loop
      vertex -8.66025 5 1.55885
      vertex -14.3252 8.44115 1.97654
      vertex -14.2028 8.2 1.55885
    endloop
  endfacet
  facet normal -0.471406 -0.816496 0.333333
    outer loop
      vertex -14.8351 9.44641 3.71769
      vertex -8.66025 5 1.55885
      vertex -11.547 10 9.72381
    endloop
  endfacet
  facet normal -0 0 -1
    outer loop
      vertex 0 20 1.55885
      vertex -8.66025 15 1.55885
      vertex -8.66025 25 1.55885
    endloop
  endfacet
  facet normal -0.942809 0 0.333333
    outer loop
      vertex -8.66025 25 1.55885
      vertex -8.66025 15 1.55885
      vertex -5.7735 20 9.72381
    endloop
  endfacet
  facet normal 0.471405 0.816496 0.333334
    outer loop
      vertex 0 20 1.55885
      vertex -8.66025 25 1.55885
      vertex -5.7735 20 9.72381
    endloop
  endfacet
  facet normal 0.471405 -0.816496 0.333334
    outer loop
      vertex -5.7735 20 9.72381
      vertex -8.66025 15 1.55885
      vertex 0 20 1.55885
    endloop
  endfacet
  facet normal 0 0 -1
    outer loop
      vertex -8.66025 25 1.55885
      vertex -12.3205 28.2 1.55885
      vertex -8.66025 35 1.55885
    endloop
  endfacet
  facet normal -0 -0 -1
    outer loop
      vertex -12.3205 28.2 1.55885
      vertex -8.66025 25 1.55885
      vertex -14.2028 28.2 1.55885
    endloop
  endfacet
  facet normal 0 0 -1
    outer loop
      vertex -12.3205 31.8 1.55885
      vertex -8.66025 35 1.55885
      vertex -12.3205 28.2 1.55885
    endloop
  endfacet
  facet normal 0 0 -1
    outer loop
      vertex -8.66025 35 1.55885
      vertex -12.3205 31.8 1.55885
      vertex -14.2028 31.8 1.55885
    endloop
  endfacet
  facet normal -0.471405 0.816496 0.333333
    outer loop
      vertex -8.66025 35 1.55885
      vertex -14.8351 30.5536 3.71769
      vertex -11.547 30 9.72381
    endloop
  endfacet
  facet normal -0.471408 0.816497 0.333327
    outer loop
      vertex -14.8351 30.5536 3.71769
      vertex -8.66025 35 1.55885
      vertex -14.3252 31.5588 1.97654
    endloop
  endfacet
  facet normal -0.471402 0.81649 0.333352
    outer loop
      vertex -14.3252 31.5588 1.97654
      vertex -8.66025 35 1.55885
      vertex -14.2028 31.8 1.55885
    endloop
  endfacet
  facet normal -0.471392 0.816506 0.333327
    outer loop
      vertex -11.547 30 9.72381
      vertex -14.8351 30.5536 3.71769
      vertex -15.794 30 3.71769
    endloop
  endfacet
  facet normal 0.942809 0 0.333333
    outer loop
      vertex -8.66025 35 1.55885
      vertex -11.547 30 9.72381
      vertex -8.66025 25 1.55885
    endloop
  endfacet
  facet normal -0.471392 -0.816506 0.333327
    outer loop
      vertex -14.8351 29.4464 3.71769
      vertex -11.547 30 9.72381
      vertex -15.794 30 3.71769
    endloop
  endfacet
  facet normal -0.471408 -0.816497 0.333327
    outer loop
      vertex -8.66025 25 1.55885
      vertex -14.8351 29.4464 3.71769
      vertex -14.3252 28.4412 1.97654
    endloop
  endfacet
  facet normal -0.471402 -0.81649 0.333352
    outer loop
      vertex -8.66025 25 1.55885
      vertex -14.3252 28.4412 1.97654
      vertex -14.2028 28.2 1.55885
    endloop
  endfacet
  facet normal -0.471405 -0.816496 0.333333
    outer loop
      vertex -14.8351 29.4464 3.71769
      vertex -8.66025 25 1.55885
      vertex -11.547 30 9.72381
    endloop
  endfacet
endsolid OpenSCAD_Model
